<svg version="1.1" xmlns="http://www.w3.org/2000/svg" x="0px" y="0px" viewBox="0 0 32 32" height="32" width="32">
<path d="M14.3,24c-0.4,0-0.7-0.1-1.1-0.3L9,20.9H5.9C4.9,20.9,4,20,4,19v-6c0-1,0.9-1.9,1.9-1.9H9l4.2-2.8c0.9-0.6,2.1-0.3,2.6,0.5
	c0.2,0.3,0.3,0.7,0.3,1.1v12.2C16.2,23.1,15.3,24,14.3,24z M5.9,12.5c-0.2,0-0.4,0.2-0.4,0.4V19c0,0.3,0.2,0.5,0.5,0.5h3.3
	c0.1,0,0.3,0,0.4,0.1l4.4,2.9c0.3,0.2,0.7,0,0.7-0.4V9.9c0-0.1,0-0.2-0.1-0.3c-0.1-0.2-0.4-0.3-0.7-0.1l-4.4,2.9
	c-0.1,0.1-0.3,0.1-0.4,0.1L5.9,12.5L5.9,12.5z"/>
<path d="M18.4,20.6c-0.3,0-0.6-0.2-0.7-0.4c-0.2-0.4,0-0.8,0.4-1c1.3-0.6,2.1-1.8,2.1-3.2c0-1.4-0.8-2.6-2.1-3.2
	c-0.4-0.2-0.5-0.6-0.4-1s0.6-0.5,1-0.4c1.9,0.8,3,2.5,3,4.5s-1.1,3.7-3,4.5C18.6,20.6,18.5,20.6,18.4,20.6z"/>
<path d="M20.5,24.2c-0.3,0-0.6-0.2-0.7-0.4c-0.2-0.4,0-0.8,0.4-1c2.8-1.3,4.4-3.8,4.4-6.7c0-3-1.6-5.5-4.4-6.7
	c-0.4-0.2-0.5-0.6-0.4-1c0.2-0.4,0.6-0.5,1-0.4c3.3,1.5,5.3,4.5,5.3,8.1s-2,6.6-5.3,8.1C20.7,24.1,20.6,24.2,20.5,24.2z"/>
</svg>
