<?xml version="1.0" encoding="UTF-8"?>
<svg width="24px" height="24px" viewBox="0 0 24 24" version="1.1" xmlns="http://www.w3.org/2000/svg" xmlns:xlink="http://www.w3.org/1999/xlink">
  <g id="Direct-Messages" stroke="none" stroke-width="1" fill="none" fill-rule="evenodd">
    <g id="01---Chats---Desktop" transform="translate(-1156.000000, -420.000000)">
      <g id="Chats-Icon" transform="translate(1156.000000, 420.000000)">
        <rect id="Tap-Target" x="0" y="0" width="24" height="24"></rect>
        <path d="M16.0359787,7.28000021 C17.0323125,7.28000021 17.8400006,8.08768832 17.8400006,9.0840221 L17.8400006,9.0840221 L17.8400006,15.2651043 C17.8400006,16.261438 17.0323125,17.0691262 16.0359787,17.0691262 L16.0359787,17.0691262 L12.304,17.0690002 L8.06191876,21.6505573 C7.89267933,21.8333155 7.60732883,21.8442747 7.42457058,21.6750352 C7.33239662,21.5896795 7.28000021,21.4697472 7.28000021,21.3441222 L7.28,17.0690002 L3.80402189,17.0691262 C2.8575048,17.0691262 2.08124043,16.3401876 2.00598028,15.4130621 L2,15.2651043 L2,9.0840221 C2,8.08768832 2.80768811,7.28000021 3.80402189,7.28000021 L3.80402189,7.28000021 Z" id="Combined-Shape" stroke="#2E405C" stroke-width="1.2" stroke-linejoin="round"></path>
        <line x1="4.75" y1="10.8" x2="13.55" y2="10.8" id="Line-2" stroke="#2E405C" stroke-width="1.2" stroke-linejoin="round"></line>
        <line x1="4.75" y1="13.55" x2="10.25" y2="13.55" id="Line" stroke="#2E405C" stroke-width="1.2" stroke-linejoin="round"></line>
        <path d="M19.9959789,11.7891259 C20.9923127,11.7891259 21.8000008,10.9814378 21.8000008,9.98510405 L21.8000008,3.80402189 C21.8000008,2.80768811 20.9923127,2 19.9959789,2 L7.76402205,2 C6.76768827,2 5.96000016,2.80768811 5.96000016,3.80402189 L5.96000016,5.30000013" id="Combined-Shape-Copy" stroke="#2E405C" stroke-width="1.2" stroke-linejoin="round"></path>
      </g>
    </g>
  </g>
</svg>
