<svg height="24" viewBox="0 0 24 24" width="24" x="0px" y="0px" xmlns="http://www.w3.org/2000/svg">
  <path fill="#EBF6FF" d="M12,4.6c-4.1,0-7.4,3.3-7.4,7.4s3.3,7.3,7.4,7.3s7.3-3.3,7.3-7.3S16.1,4.6,12,4.6z"/>
  <path fill="#1589EE" d="M12,3.4c-4.8,0-8.6,3.8-8.6,8.6s3.8,8.7,8.6,8.7s8.7-4,8.7-8.7S16.8,3.4,12,3.4z M4.6,12c0-4.1,3.3-7.4,7.4-7.4
    S19.3,8,19.3,12s-3.2,7.3-7.3,7.3S4.6,16.1,4.6,12z"/>
  <polygon fill="#1589EE" points="14.8,8.3 12,11.1 9.2,8.3 8.3,9.2 11.1,12 8.3,14.8 9.2,15.7 12,12.9 14.8,15.7 15.7,14.8 12.9,12 
    15.7,9.2 "/>
</svg>
