<svg viewBox="0 0 24 24" width="24" height="24" xmlns="http://www.w3.org/2000/svg" fill="currentColor">
  <path d="M10.1,11.7H8.5v-1.3h1.6c0.2,0,0.4-0.2,0.4-0.4V8.5h1.3v1.6C11.7,11,11,11.7,10.1,11.7z M5.3,11.7H2.7C1.8,11.7,1,11,1,10.1V2.7C1,1.8,1.8,1,2.7,1h7.4c0.9,0,1.7,0.8,1.7,1.7v2.6h-1.3V2.7c0-0.2-0.2-0.4-0.4-0.4H2.7c-0.2,0-0.4,0.2-0.4,0.4v7.4c0,0.2,0.2,0.4,0.4,0.4h2.6V11.7z"/>
  <path d="M15.3,17H7.9c-0.9,0-1.7-0.8-1.7-1.7V7.9C6.3,7,7,6.3,7.9,6.3h7.4C16.2,6.3,17,7,17,7.9v7.4C17,16.2,16.2,17,15.3,17zM7.9,7.5c-0.2,0-0.4,0.2-0.4,0.4v7.4c0,0.2,0.2,0.4,0.4,0.4h7.4c0.2,0,0.4-0.2,0.4-0.4V7.9c0-0.2-0.2-0.4-0.4-0.4H7.9z"/>
</svg>
