<svg width="24" height="24" viewBox="0 0 24 24" xmlns="http://www.w3.org/2000/svg" fill="currentColor">
  <path d="M14,17.86a1.56,1.56,0,0,1-.89-.27l-2-1.32a.6.6,0,1,1,.66-1l2,1.33a.42.42,0,0,0,.62-.34V12.5a.6.6,0,0,1,1.2,0v3.76A1.6,1.6,0,0,1,14,17.86ZM7.5,15.23H7a1.6,1.6,0,0,1-1.6-1.6v-5A1.6,1.6,0,0,1,7,7H9.57l3.54-2.36a1.6,1.6,0,0,1,2.22.44A1.58,1.58,0,0,1,15.6,6V7.18a.6.6,0,0,1-1.2,0V6a.34.34,0,0,0-.07-.22.39.39,0,0,0-.55-.11l-3.7,2.46a.56.56,0,0,1-.33.1H7a.4.4,0,0,0-.4.4v5A.4.4,0,0,0,7,14h.5a.6.6,0,1,1,0,1.2Z"/><path d="M6.12,19.2A.61.61,0,0,1,5.69,19a.6.6,0,0,1,0-.84l13-13a.58.58,0,0,1,.84,0,.59.59,0,0,1,0,.85l-13,13A.58.58,0,0,1,6.12,19.2Z"/>
</svg>
