<svg version="1.1" xmlns="http://www.w3.org/2000/svg" x="0px" y="0px" viewBox="0 0 40 40">
  <path fill="#ebf6ff" d="M20.5,23c4.1,0,7.5-3.4,7.5-7.5v-4C28,7.4,24.6,4,20.5,4S13,7.4,13,11.5v4C13,19.6,16.4,23,20.5,23z"/>
  <path fill="#ebf6ff" d="M35,34c0-5.5-4.5-10-10-10c-0.3,2.2-2.2,4-4.5,4s-4.3-1.8-4.5-4h-1C9.5,24,5,28.5,5,34v2h30V34z"/>
  <path fill="#2E405C" d="M36,0H4C1.8,0,0,1.8,0,4v32c0,2.2,1.8,4,4,4h32c2.2,0,4-1.8,4-4V4C40,1.8,38.2,0,36,0z M13,11.5
	C13,7.4,16.4,4,20.5,4S28,7.4,28,11.5v4c0,4.1-3.4,7.5-7.5,7.5S13,19.6,13,15.5V11.5z M35,36H5v-2c0-5.5,4.5-10,10-10h1
	c0.2,2.2,2.2,4,4.5,4s4.2-1.8,4.5-4h0c5.5,0,10,4.5,10,10V36z"/>
</svg>
