<svg version="1.1" xmlns="http://www.w3.org/2000/svg" x="0px" y="0px" viewBox="0 0 40 32">
  <path fill="#2E405C" d="M36.4,0H3.6C1.6,0,0,1.6,0,3.6V28c0,2,1.6,3.6,3.6,3.6h32.8c2,0,3.6-1.6,3.6-3.6V3.6C40,1.6,38.4,0,36.4,0z
    M36.8,27.9c0,0.3-0.2,0.5-0.5,0.5H3.7c-0.3,0-0.5-0.2-0.5-0.5v-1.4l7.7-6.9c0.5-0.5,1.2-0.7,1.8-0.7c0.7,0,1.3,0.3,1.8,0.8l5.2,5.7
    c1.2,1.4,3.3,1.6,4.8,0.5l4.2-3.1c0.9-0.7,2.2-0.7,3.1,0l5.1,3.8V27.9z M36.8,23.3l-3.3-2.5c-2-1.5-4.7-1.5-6.7,0l-4.2,3.2
    c-0.2,0.2-0.5,0.2-0.7,0l-5.2-5.9c-1-1.1-2.4-1.8-3.9-1.9s-2.9,0.4-4.1,1.5l-5.7,5.2V3.7c0-0.3,0.2-0.5,0.5-0.5h32.7
    c0.3,0,0.5,0.2,0.5,0.5V23.3z"/>
  <ellipse fill="#2E405C" cx="29" cy="8.9" rx="3" ry="3"/>
</svg>
