<svg xmlns="http://www.w3.org/2000/svg" x="0px" y="0px" width="24" height="24" viewBox="0 0 24 24" fill="currentColor">
  <path d="M21,11.9h-4.5c-0.3-0.9-1.1-1.5-2-1.5s-1.8,0.6-2,1.5H3v1.3h9.5c0.3,0.9,1.1,1.5,2,1.5s1.8-0.6,2-1.5H21V11.9zM14.5,13.3c-0.5,0-0.8-0.4-0.8-0.8s0.4-0.9,0.8-0.9s0.8,0.4,0.8,0.9S15,13.3,14.5,13.3z"/>
  <path d="M21,17.8H9.5c-0.3-0.9-1.1-1.5-2-1.5s-1.8,0.6-2,1.5H3v1.3h2.5c0.3,0.9,1.1,1.5,2,1.5s1.8-0.6,2-1.5H21V17.8zM7.5,19.3c-0.5,0-0.9-0.4-0.9-0.8s0.4-0.8,0.9-0.8s0.9,0.4,0.9,0.8S8,19.3,7.5,19.3z"/>
  <path d="M21,5.9H9.5C9.3,5,8.5,4.4,7.5,4.4S5.7,5,5.5,5.9H3v1.3h2.5c0.3,0.9,1.1,1.5,2,1.5s1.8-0.6,2-1.5H21V5.9zM7.5,7.4C7,7.4,6.6,7,6.6,6.5S7,5.6,7.5,5.6S8.4,6,8.4,6.5S8,7.4,7.5,7.4z"/>
</svg>
