<svg xmlns="http://www.w3.org/2000/svg" x="0px" y="0px" viewBox="0 0 24 24" height="24" width="24">
  <circle fill="#ebf6ff" cx="12" cy="12" r="8" />
  <path fill="#1589EE" d="M12 3.4c-4.8 0-8.6 3.9-8.6 8.6s3.9 8.7 8.6 8.7 8.7-3.9 8.7-8.7-3.9-8.6-8.7-8.6zm0 15.9c-4.1 0-7.4-3.3-7.4-7.3S7.9 4.6 12 4.6s7.3 3.3 7.3 7.4-3.2 7.3-7.3 7.3z" class="st1"/>
  <path fill="#1589EE" d="M12.2 14.8c-.3 0-.5.1-.6.3s-.3.4-.3.6.1.5.3.6c.2.2.4.3.6.3.2 0 .5-.1.6-.3.2-.2.3-.4.3-.6s-.1-.5-.3-.7-.4-.2-.6-.2zM13.6 8.2c-.4-.2-.8-.3-1.3-.3s-.9.1-1.4.2-.9.4-1.2.7c-.1.2-.2.4-.2.6 0 .2 0 .3.1.4s.2.2.4.2c.1 0 .3-.1.5-.2.4-.2.7-.4.9-.5.3-.1.5-.2.8-.2.3 0 .6.1.8.2.2.2.3.4.3.6 0 .2-.1.5-.2.6-.1.2-.3.4-.5.7-.3.4-.5.7-.7 1-.2.3-.2.7-.2 1.1 0 .2 0 .3.1.4.1.1.2.1.3.1.1 0 .2 0 .3-.1.1-.1.1-.2.2-.3 0-.3.1-.5.3-.8.2-.2.4-.5.7-.8.4-.4.7-.7.9-1 .2-.3.3-.7.3-1.1 0-.4-.1-.7-.3-1-.2-.1-.5-.3-.9-.5z" class="st1"/>
</svg>
